<svg width="24" height="24" viewBox="0 0 24 24" fill="none" xmlns="http://www.w3.org/2000/svg">
<path fill-rule="evenodd" clip-rule="evenodd" d="M5.79132 10.9753L6.28302 9.50761L5.14887 8.45429C4.68555 8.024 4.40085 7.41697 4.40085 6.73979C4.40085 5.4481 5.44798 4.40098 6.73967 4.40098C7.56678 4.40098 8.29564 4.82854 8.71478 5.48608L9.5453 6.78896L11.0751 6.5723C11.3777 6.52945 11.6881 6.50712 12.005 6.50712C12.322 6.50712 12.6324 6.52945 12.9349 6.5723L14.4647 6.78896L15.2953 5.48608C15.7144 4.82854 16.4433 4.40098 17.2704 4.40098C18.5621 4.40098 19.6092 5.4481 19.6092 6.73979C19.6092 7.41697 19.3245 8.02399 18.8612 8.45428L17.727 9.5076L18.2187 10.9753C18.4369 11.6265 18.5561 12.326 18.5561 13.0582C18.5561 16.6763 15.6231 19.6093 12.005 19.6093C8.38695 19.6093 5.45392 16.6763 5.45392 13.0582C5.45392 12.326 5.57313 11.6265 5.79132 10.9753ZM6.73967 2.00098C8.42072 2.00098 9.89732 2.87629 10.7386 4.19602C11.1523 4.13742 11.5751 4.10712 12.005 4.10712C12.4349 4.10712 12.8577 4.13742 13.2715 4.19602C14.1127 2.87629 15.5893 2.00098 17.2704 2.00098C19.8875 2.00098 22.0092 4.12262 22.0092 6.73979C22.0092 8.11173 21.4262 9.34749 20.4944 10.2129C20.7939 11.1067 20.9561 12.0635 20.9561 13.0582C20.9561 18.0018 16.9486 22.0093 12.005 22.0093C7.06147 22.0093 3.05392 18.0018 3.05392 13.0582C3.05392 12.0635 3.21617 11.1067 3.51564 10.2129C2.58386 9.3475 2.00085 8.11173 2.00085 6.73979C2.00085 4.12262 4.12249 2.00098 6.73967 2.00098ZM12.005 17.0072C9.79495 17.0072 8.00334 15.2156 8.00334 13.0056H10.4043C10.4043 13.8896 11.121 14.6062 12.005 14.6062C12.889 14.6062 13.6057 13.8896 13.6057 13.0056H16.0067C16.0067 15.2156 14.2151 17.0072 12.005 17.0072Z" fill="white" fill-opacity="0.6"/>
</svg>
